<?xml version="1.0" encoding="utf-8"?>
<!-- Generator: Adobe Illustrator 16.0.0, SVG Export Plug-In . SVG Version: 6.00 Build 0)  -->
<!DOCTYPE svg PUBLIC "-//W3C//DTD SVG 1.1//EN" "http://www.w3.org/Graphics/SVG/1.1/DTD/svg11.dtd" [
	<!ENTITY ns_extend "http://ns.adobe.com/Extensibility/1.0/">
	<!ENTITY ns_ai "http://ns.adobe.com/AdobeIllustrator/10.0/">
	<!ENTITY ns_graphs "http://ns.adobe.com/Graphs/1.0/">
	<!ENTITY ns_vars "http://ns.adobe.com/Variables/1.0/">
	<!ENTITY ns_imrep "http://ns.adobe.com/ImageReplacement/1.0/">
	<!ENTITY ns_sfw "http://ns.adobe.com/SaveForWeb/1.0/">
	<!ENTITY ns_custom "http://ns.adobe.com/GenericCustomNamespace/1.0/">
	<!ENTITY ns_adobe_xpath "http://ns.adobe.com/XPath/1.0/">
]>
<svg version="1.1" id="Capa_1" xmlns:x="&ns_extend;" xmlns:i="&ns_ai;" xmlns:graph="&ns_graphs;"
	 xmlns="http://www.w3.org/2000/svg" xmlns:xlink="http://www.w3.org/1999/xlink" x="0px" y="0px" width="100px" height="100px"
	 viewBox="-121.9 -138.1 100 100" enable-background="new -121.9 -138.1 100 100" xml:space="preserve">
<metadata>
	<sfw  xmlns="&ns_sfw;">
		<slices></slices>
		<sliceSourceBounds  height="100" width="100" y="138.6" x="-122.4" bottomLeftOrigin="true"></sliceSourceBounds>
	</sfw>
</metadata>
<path d="M-71.9-138.1c-27.613,0-50,22.386-50,50c0,27.614,22.387,50,50,50c27.615,0,50-22.387,50-50
	C-21.9-115.714-44.285-138.1-71.9-138.1z M-68.7-117.7c2.2-2.6,6.2-4.8,9.4-5c0.6,3.8-1,7.4-3,9.8c-2.2,3-6,5-9.601,5
	C-72.5-111.5-70.7-115.3-68.7-117.7z M-48.5-69.7c-2.6,4-6.199,9-10.8,9c-4,0-5-2.6-10.601-2.6c-5.399,0-6.6,2.6-10.6,2.6
	c-4.6-0.2-8-4.6-10.6-8.6c-7.4-11.2-8-24.2-3.601-31.2c3.2-5,8.2-7.8,13-7.8s7.8,2.6,11.8,2.6c3.801,0,6.2-2.6,11.801-2.6
	c4.199,0,8.6,2.4,11.8,6.4c-10.4,5.8-8.8,20.8,1.8,24.8C-45.9-73.9-46.699-72.5-48.5-69.7z"/>
</svg>
