<?xml version="1.0" encoding="UTF-8" standalone="no"?>
<svg
   xmlns:dc="http://purl.org/dc/elements/1.1/"
   xmlns:cc="http://creativecommons.org/ns#"
   xmlns:rdf="http://www.w3.org/1999/02/22-rdf-syntax-ns#"
   xmlns:svg="http://www.w3.org/2000/svg"
   xmlns="http://www.w3.org/2000/svg"
   viewBox="0 0 18.666668 18.666668"
   height="18.666668"
   width="18.666668"
   xml:space="preserve"
   id="svg2"
   version="1.1"><metadata
     id="metadata8"><rdf:RDF><cc:Work
         rdf:about=""><dc:format>image/svg+xml</dc:format><dc:type
           rdf:resource="http://purl.org/dc/dcmitype/StillImage" /></cc:Work></rdf:RDF></metadata><defs
     id="defs6"><clipPath
       id="clipPath18"
       clipPathUnits="userSpaceOnUse"><path
         id="path16"
         d="M 0,14 H 14 V 0 H 0 Z" /></clipPath></defs><g
     transform="matrix(1.3333333,0,0,-1.3333333,0,18.666667)"
     id="g10"><g
       id="g12"><g
         clip-path="url(#clipPath18)"
         id="g14"><g
           transform="translate(12.2895,14)"
           id="g20"><path
             id="path22"
             style="fill:#000000;fill-opacity:1;fill-rule:nonzero;stroke:none"
             d="M 0,0 C 0.944,0 1.71,-0.766 1.71,-1.71 V -12.29 C 1.71,-13.234 0.944,-14 0,-14 h -2.911 v 5.275 h 1.821 l 0.346,2.259 H -2.911 V -5 c 0,0.618 0.303,1.221 1.273,1.221 h 0.986 v 1.923 c 0,0 -0.894,0.153 -1.75,0.153 -1.785,0 -2.952,-1.082 -2.952,-3.041 v -1.722 h -1.984 v -2.259 h 1.984 V -14 h -5.225 c -0.944,0 -1.711,0.766 -1.711,1.71 v 10.58 c 0,0.944 0.767,1.71 1.711,1.71 z" /></g></g></g></g></svg>