<?xml version="1.0" encoding="UTF-8" standalone="no"?>
<svg
   xmlns:dc="http://purl.org/dc/elements/1.1/"
   xmlns:cc="http://creativecommons.org/ns#"
   xmlns:rdf="http://www.w3.org/1999/02/22-rdf-syntax-ns#"
   xmlns:svg="http://www.w3.org/2000/svg"
   xmlns="http://www.w3.org/2000/svg"
   viewBox="0 0 18.666668 18.666668"
   height="18.666668"
   width="18.666668"
   xml:space="preserve"
   id="svg2"
   version="1.1"><metadata
     id="metadata8"><rdf:RDF><cc:Work
         rdf:about=""><dc:format>image/svg+xml</dc:format><dc:type
           rdf:resource="http://purl.org/dc/dcmitype/StillImage" /></cc:Work></rdf:RDF></metadata><defs
     id="defs6"><clipPath
       id="clipPath18"
       clipPathUnits="userSpaceOnUse"><path
         id="path16"
         d="M 0,14 H 14 V 0 H 0 Z" /></clipPath></defs><g
     transform="matrix(1.3333333,0,0,-1.3333333,0,18.666667)"
     id="g10"><g
       id="g12"><g
         clip-path="url(#clipPath18)"
         id="g14"><g
           transform="translate(9.7143,14)"
           id="g20"><path
             id="path22"
             style="fill:#000000;fill-opacity:1;fill-rule:nonzero;stroke:none"
             d="m 0,0 h -5.429 c -2.364,-0.007 -4.278,-1.922 -4.285,-4.286 v -5.428 c 0.007,-2.364 1.921,-4.279 4.285,-4.286 L 0,-14 c 2.364,0.007 4.279,1.922 4.286,4.286 v 5.428 C 4.279,-1.922 2.364,-0.007 0,0 m 0,-1.143 c 1.736,0 3.143,-1.407 3.143,-3.143 v -5.428 c 0,-1.736 -1.407,-3.143 -3.143,-3.143 h -5.429 c -1.735,0 -3.142,1.407 -3.142,3.143 v 5.428 c 0,1.736 1.407,3.143 3.142,3.143 H 0" /></g><g
           transform="translate(10.7343,11.5714)"
           id="g24"><path
             id="path26"
             style="fill:#000000;fill-opacity:1;fill-rule:nonzero;stroke:none"
             d="m 0,0 c -0.452,0 -0.819,-0.366 -0.819,-0.819 0,-0.452 0.367,-0.818 0.819,-0.818 0.452,0 0.819,0.366 0.819,0.818 C 0.819,-0.366 0.452,0 0,0" /></g><g
           transform="translate(7.0386,10.6471)"
           id="g28"><path
             id="path30"
             style="fill:#000000;fill-opacity:1;fill-rule:nonzero;stroke:none"
             d="m 0,0 c -2.026,-0.004 -3.665,-1.65 -3.661,-3.676 0.004,-2.026 1.649,-3.665 3.675,-3.661 2.024,0.004 3.662,1.646 3.662,3.67 C 3.675,-1.641 2.032,0.001 0.006,0 0.004,0 0.002,0 0,0 m 0,-1.143 c 1.395,0.001 2.526,-1.129 2.527,-2.524 10e-4,-1.395 -1.129,-2.526 -2.524,-2.527 -1.395,-0.001 -2.526,1.129 -2.527,2.524 0,10e-4 0,0.002 0,0.003 0.002,1.393 1.131,2.522 2.524,2.524" /></g></g></g></g></svg>