<?xml version="1.0" encoding="UTF-8" standalone="no"?>
<svg
   xmlns:dc="http://purl.org/dc/elements/1.1/"
   xmlns:cc="http://creativecommons.org/ns#"
   xmlns:rdf="http://www.w3.org/1999/02/22-rdf-syntax-ns#"
   xmlns:svg="http://www.w3.org/2000/svg"
   xmlns="http://www.w3.org/2000/svg"
   viewBox="0 0 18.666668 18.666668"
   height="18.666668"
   width="18.666668"
   xml:space="preserve"
   id="svg2"
   version="1.1"><metadata
     id="metadata8"><rdf:RDF><cc:Work
         rdf:about=""><dc:format>image/svg+xml</dc:format><dc:type
           rdf:resource="http://purl.org/dc/dcmitype/StillImage" /></cc:Work></rdf:RDF></metadata><defs
     id="defs6"><clipPath
       id="clipPath18"
       clipPathUnits="userSpaceOnUse"><path
         id="path16"
         d="M 0,14 H 14 V 0 H 0 Z" /></clipPath></defs><g
     transform="matrix(1.3333333,0,0,-1.3333333,0,18.666667)"
     id="g10"><g
       id="g12"><g
         clip-path="url(#clipPath18)"
         id="g14"><g
           transform="translate(14,3.7059)"
           id="g20"><path
             id="path22"
             style="fill:#000000;fill-opacity:1;fill-rule:nonzero;stroke:none"
             d="M 0,0 C 0,-0.686 -0.243,-1.267 -0.729,-1.741 L -1.99,-2.994 c -0.475,-0.475 -1.055,-0.712 -1.742,-0.712 -0.692,0 -1.275,0.243 -1.75,0.729 l -1.767,1.776 c -0.474,0.475 -0.712,1.055 -0.712,1.741 0,0.704 0.252,1.301 0.755,1.793 L -7.961,3.088 C -8.453,2.585 -9.047,2.333 -9.745,2.333 c -0.686,0 -1.27,0.241 -1.75,0.721 l -1.784,1.784 C -13.76,5.319 -14,5.902 -14,6.588 c 0,0.687 0.243,1.267 0.729,1.742 l 1.261,1.252 c 0.475,0.475 1.055,0.712 1.742,0.712 0.692,0 1.275,-0.243 1.75,-0.729 l 1.767,-1.776 c 0.474,-0.474 0.712,-1.055 0.712,-1.741 0,-0.704 -0.252,-1.301 -0.755,-1.793 L -6.039,3.5 c 0.492,0.503 1.086,0.755 1.784,0.755 0.686,0 1.27,-0.24 1.75,-0.721 L -0.721,1.75 C -0.24,1.27 0,0.686 0,0 m -7.678,6.048 c 0,0.229 -0.08,0.423 -0.24,0.583 l -1.767,1.776 c -0.16,0.16 -0.355,0.24 -0.583,0.24 -0.223,0 -0.418,-0.077 -0.584,-0.232 l -1.261,-1.252 c -0.16,-0.16 -0.24,-0.352 -0.24,-0.575 0,-0.229 0.08,-0.423 0.24,-0.583 l 1.785,-1.784 c 0.154,-0.155 0.348,-0.232 0.583,-0.232 0.24,0 0.446,0.089 0.618,0.266 -0.018,0.017 -0.072,0.07 -0.163,0.159 -0.092,0.088 -0.153,0.15 -0.185,0.184 -0.031,0.034 -0.074,0.089 -0.129,0.163 -0.054,0.074 -0.091,0.147 -0.111,0.219 -0.02,0.071 -0.03,0.15 -0.03,0.236 0,0.228 0.08,0.423 0.24,0.583 0.16,0.16 0.355,0.24 0.583,0.24 0.086,0 0.165,-0.01 0.236,-0.03 0.072,-0.02 0.145,-0.057 0.219,-0.111 0.074,-0.055 0.129,-0.098 0.163,-0.129 0.034,-0.031 0.096,-0.093 0.185,-0.184 0.088,-0.092 0.141,-0.146 0.158,-0.163 0.189,0.177 0.283,0.386 0.283,0.626 M -1.647,0 c 0,0.229 -0.08,0.423 -0.24,0.583 l -1.785,1.785 c -0.16,0.16 -0.354,0.24 -0.583,0.24 -0.24,0 -0.446,-0.092 -0.618,-0.275 0.018,-0.017 0.072,-0.07 0.163,-0.158 0.092,-0.089 0.153,-0.15 0.185,-0.185 0.031,-0.034 0.074,-0.088 0.129,-0.163 0.054,-0.074 0.091,-0.147 0.111,-0.219 0.02,-0.071 0.03,-0.15 0.03,-0.235 0,-0.229 -0.08,-0.424 -0.24,-0.584 -0.16,-0.16 -0.355,-0.24 -0.583,-0.24 -0.086,0 -0.165,0.01 -0.236,0.03 -0.072,0.02 -0.145,0.057 -0.219,0.112 C -5.607,0.745 -5.662,0.788 -5.696,0.819 -5.73,0.851 -5.792,0.912 -5.881,1.004 -5.969,1.095 -6.022,1.15 -6.039,1.167 -6.228,0.989 -6.322,0.781 -6.322,0.54 c 0,-0.228 0.08,-0.423 0.24,-0.583 l 1.767,-1.776 c 0.154,-0.154 0.349,-0.231 0.583,-0.231 0.229,0 0.424,0.074 0.584,0.223 l 1.261,1.252 c 0.16,0.16 0.24,0.352 0.24,0.575" /></g></g></g></g></svg>