<?xml version="1.0" encoding="UTF-8" standalone="no"?>
<svg
   xmlns:dc="http://purl.org/dc/elements/1.1/"
   xmlns:cc="http://creativecommons.org/ns#"
   xmlns:rdf="http://www.w3.org/1999/02/22-rdf-syntax-ns#"
   xmlns:svg="http://www.w3.org/2000/svg"
   xmlns="http://www.w3.org/2000/svg"
   viewBox="0 0 18.666668 18.666668"
   height="18.666668"
   width="18.666668"
   xml:space="preserve"
   id="svg2"
   version="1.1"><metadata
     id="metadata8"><rdf:RDF><cc:Work
         rdf:about=""><dc:format>image/svg+xml</dc:format><dc:type
           rdf:resource="http://purl.org/dc/dcmitype/StillImage" /></cc:Work></rdf:RDF></metadata><defs
     id="defs6"><clipPath
       id="clipPath18"
       clipPathUnits="userSpaceOnUse"><path
         id="path16"
         d="M 0,14 H 14 V 0 H 0 Z" /></clipPath></defs><g
     transform="matrix(1.3333333,0,0,-1.3333333,0,18.666667)"
     id="g10"><g
       id="g12"><g
         clip-path="url(#clipPath18)"
         id="g14"><path
           id="path20"
           style="fill:#000000;fill-opacity:1;fill-rule:nonzero;stroke:none"
           d="M 0.179,0.311 H 3.18 v 9.03 H 0.179 Z m 1.52,13.378 C 0.671,13.689 0,13.015 0,12.13 0,11.264 0.651,10.571 1.66,10.571 h 0.02 c 1.048,0 1.699,0.693 1.699,1.559 -0.023,0.885 -0.655,1.559 -1.68,1.559 M 14,5.49 V 0.314 h -3.001 v 4.827 c 0,1.214 -0.433,2.041 -1.52,2.041 -0.83,0 -1.322,-0.556 -1.54,-1.097 C 7.861,5.893 7.838,5.623 7.838,5.353 V 0.311 H 4.837 c 0,0 0.039,8.18 0,9.026 H 7.838 V 8.058 C 7.832,8.048 7.825,8.038 7.819,8.029 H 7.838 V 8.058 C 8.239,8.673 8.948,9.549 10.543,9.549 12.519,9.552 14,8.26 14,5.49" /></g></g></g></svg>