<?xml version="1.0" encoding="UTF-8" standalone="no"?>
<svg
   xmlns:dc="http://purl.org/dc/elements/1.1/"
   xmlns:cc="http://creativecommons.org/ns#"
   xmlns:rdf="http://www.w3.org/1999/02/22-rdf-syntax-ns#"
   xmlns:svg="http://www.w3.org/2000/svg"
   xmlns="http://www.w3.org/2000/svg"
   viewBox="0 0 84 62.666668"
   height="62.666668"
   width="84"
   xml:space="preserve"
   id="svg2"
   version="1.1"><metadata
     id="metadata8"><rdf:RDF><cc:Work
         rdf:about=""><dc:format>image/svg+xml</dc:format><dc:type
           rdf:resource="http://purl.org/dc/dcmitype/StillImage" /></cc:Work></rdf:RDF></metadata><defs
     id="defs6"><clipPath
       id="clipPath18"
       clipPathUnits="userSpaceOnUse"><path
         id="path16"
         d="M 0,47 H 63 V 0 H 0 Z" /></clipPath></defs><g
     transform="matrix(1.3333333,0,0,-1.3333333,0,62.666667)"
     id="g10"><g
       id="g12"><g
         clip-path="url(#clipPath18)"
         id="g14"><g
           transform="translate(31.5,7.4653)"
           id="g20"><path
             id="path22"
             style="fill:#000000;fill-opacity:1;fill-rule:nonzero;stroke:none"
             d="m 0,0 c -6.898,0 -12.49,5.592 -12.49,12.49 0,6.898 5.592,12.49 12.49,12.49 6.898,0 12.49,-5.592 12.49,-12.49 C 12.49,5.592 6.898,0 0,0 M 9.887,39.522 H -9.887 l -5.317,-7.09 H -31.5 V -7.453 h 63 V 32.432 H 15.204 Z M 0,-1 c 7.438,0 13.49,6.052 13.49,13.49 0,7.438 -6.052,13.49 -13.49,13.49 -7.438,0 -13.49,-6.052 -13.49,-13.49 C -13.49,5.052 -7.438,-1 0,-1 m 9.387,39.522 5.017,-6.69 0.3,-0.4 h 0.5 H 30.5 V -6.453 h -61 v 37.885 h 15.296 0.5 l 0.3,0.4 5.017,6.69 H 9.387" /></g></g></g></g></svg>