<?xml version="1.0" encoding="UTF-8" standalone="no"?>
<svg
   xmlns:dc="http://purl.org/dc/elements/1.1/"
   xmlns:cc="http://creativecommons.org/ns#"
   xmlns:rdf="http://www.w3.org/1999/02/22-rdf-syntax-ns#"
   xmlns:svg="http://www.w3.org/2000/svg"
   xmlns="http://www.w3.org/2000/svg"
   viewBox="0 0 18.666668 25.333332"
   height="25.333332"
   width="18.666668"
   xml:space="preserve"
   id="svg2"
   version="1.1"><metadata
     id="metadata8"><rdf:RDF><cc:Work
         rdf:about=""><dc:format>image/svg+xml</dc:format><dc:type
           rdf:resource="http://purl.org/dc/dcmitype/StillImage" /></cc:Work></rdf:RDF></metadata><defs
     id="defs6"><clipPath
       id="clipPath18"
       clipPathUnits="userSpaceOnUse"><path
         id="path16"
         d="M 0,19 H 14 V 0 H 0 Z" /></clipPath></defs><g
     transform="matrix(1.3333333,0,0,-1.3333333,0,25.333333)"
     id="g10"><g
       id="g12"><g
         clip-path="url(#clipPath18)"
         id="g14"><g
           transform="translate(7,4.3182)"
           id="g20"><path
             id="path22"
             style="fill:#000000;fill-opacity:1;fill-rule:nonzero;stroke:none"
             d="m 0,0 c -2.85,0 -5.182,2.332 -5.182,5.182 0,0.863 0.259,1.727 0.605,2.418 L -5.873,8.895 C -6.477,7.773 -6.909,6.564 -6.909,5.182 -6.909,1.382 -3.8,-1.727 0,-1.727 V -4.318 L 3.455,-0.864 0,2.591 Z m 0,12.091 v 2.591 L -3.455,11.227 0,7.773 v 2.591 c 2.85,0 5.182,-2.332 5.182,-5.182 0,-0.864 -0.259,-1.727 -0.605,-2.418 L 5.873,1.468 C 6.477,2.591 6.909,3.8 6.909,5.182 6.909,8.982 3.8,12.091 0,12.091" /></g></g></g></g></svg>