<?xml version="1.0" encoding="UTF-8" standalone="no"?>
<svg
   xmlns:dc="http://purl.org/dc/elements/1.1/"
   xmlns:cc="http://creativecommons.org/ns#"
   xmlns:rdf="http://www.w3.org/1999/02/22-rdf-syntax-ns#"
   xmlns:svg="http://www.w3.org/2000/svg"
   xmlns="http://www.w3.org/2000/svg"
   viewBox="0 0 18.666668 17.333332"
   height="17.333332"
   width="18.666668"
   xml:space="preserve"
   id="svg2"
   version="1.1"><metadata
     id="metadata8"><rdf:RDF><cc:Work
         rdf:about=""><dc:format>image/svg+xml</dc:format><dc:type
           rdf:resource="http://purl.org/dc/dcmitype/StillImage" /></cc:Work></rdf:RDF></metadata><defs
     id="defs6"><clipPath
       id="clipPath18"
       clipPathUnits="userSpaceOnUse"><path
         id="path16"
         d="M 0,13 H 14 V 0 H 0 Z" /></clipPath></defs><g
     transform="matrix(1.3333333,0,0,-1.3333333,0,17.333333)"
     id="g10"><g
       id="g12"><g
         clip-path="url(#clipPath18)"
         id="g14"><g
           transform="translate(1.6924,9.539)"
           id="g20"><path
             id="path22"
             style="fill:#000000;fill-opacity:1;fill-rule:nonzero;stroke:none"
             d="M 0,0 C 0,0.621 0.503,1.124 1.124,1.124 1.745,1.124 2.248,0.621 2.248,0 2.248,-0.621 1.745,-1.124 1.124,-1.124 0.503,-1.124 0,-0.621 0,0 m 3.81,-0.846 h 7.651 V 0.846 H 3.81 C 3.45,1.987 2.382,2.816 1.124,2.816 -0.429,2.816 -1.692,1.553 -1.692,0 c 0,-1.553 1.263,-2.816 2.816,-2.816 1.258,0 2.326,0.829 2.686,1.97" /></g><g
           transform="translate(11.1836,2.3224)"
           id="g24"><path
             id="path26"
             style="fill:#000000;fill-opacity:1;fill-rule:nonzero;stroke:none"
             d="m 0,0 c -0.621,0 -1.124,0.503 -1.124,1.124 0,0.621 0.503,1.124 1.124,1.124 0.621,0 1.124,-0.503 1.124,-1.124 C 1.124,0.503 0.621,0 0,0 m 0,3.94 c -1.258,0 -2.326,-0.829 -2.686,-1.97 h -7.651 V 0.278 h 7.651 c 0.36,-1.141 1.428,-1.97 2.686,-1.97 1.553,0 2.816,1.263 2.816,2.816 C 2.816,2.677 1.553,3.94 0,3.94" /></g></g></g></g></svg>