<?xml version="1.0" encoding="utf-8"?>
<!-- Generator: Adobe Illustrator 16.0.0, SVG Export Plug-In . SVG Version: 6.00 Build 0)  -->
<!DOCTYPE svg PUBLIC "-//W3C//DTD SVG 1.1//EN" "http://www.w3.org/Graphics/SVG/1.1/DTD/svg11.dtd" [
	<!ENTITY ns_extend "http://ns.adobe.com/Extensibility/1.0/">
	<!ENTITY ns_ai "http://ns.adobe.com/AdobeIllustrator/10.0/">
	<!ENTITY ns_graphs "http://ns.adobe.com/Graphs/1.0/">
	<!ENTITY ns_vars "http://ns.adobe.com/Variables/1.0/">
	<!ENTITY ns_imrep "http://ns.adobe.com/ImageReplacement/1.0/">
	<!ENTITY ns_sfw "http://ns.adobe.com/SaveForWeb/1.0/">
	<!ENTITY ns_custom "http://ns.adobe.com/GenericCustomNamespace/1.0/">
	<!ENTITY ns_adobe_xpath "http://ns.adobe.com/XPath/1.0/">
]>
<svg version="1.1" id="Capa_1" xmlns:x="&ns_extend;" xmlns:i="&ns_ai;" xmlns:graph="&ns_graphs;"
	 xmlns="http://www.w3.org/2000/svg" xmlns:xlink="http://www.w3.org/1999/xlink" x="0px" y="0px" width="100px" height="100px"
	 viewBox="75.1 -15.1 100 100" enable-background="new 75.1 -15.1 100 100" xml:space="preserve">
<metadata>
	<sfw  xmlns="&ns_sfw;">
		<slices></slices>
		<sliceSourceBounds  height="100" width="100" y="15.6" x="74.6" bottomLeftOrigin="true"></sliceSourceBounds>
	</sfw>
</metadata>
<path d="M125.1-15.1c-27.613,0-50,22.386-50,50c0,27.614,22.387,50,50,50c27.615,0,50-22.387,50-50
	C175.1,7.286,152.715-15.1,125.1-15.1z M150.1,27.3c0,0.6,0,1,0,1.6c0,15.8-12,34-34,34c-6.8,0-13.199-2-18.399-5.4
	c0.8,0.2,1.8,0.2,2.8,0.2c5.6,0,10.8-2,14.8-5.2c-5.2,0-9.6-3.4-11.2-8.2c0.601,0.2,1.4,0.2,2.2,0.2c1.2,0,2.2-0.2,3.2-0.4
	c-5.4-1.2-9.6-6-9.6-11.8v-0.2c1.6,0.8,3.399,1.4,5.399,1.4c-3.2-2.2-5.399-5.8-5.399-10c0-2.2,0.6-4.2,1.6-6
	c5.8,7.2,14.6,12,24.6,12.4c-0.199-1-0.399-1.8-0.399-2.8c0-6.6,5.399-12,12-12c3.6,0,6.6,1.4,8.8,3.8c2.8-0.4,5.2-1.4,7.6-2.8
	c-0.8,2.8-2.8,5.2-5.199,6.6c2.399-0.2,4.6-0.8,6.8-1.8C154.1,23.3,152.1,25.3,150.1,27.3z"/>
</svg>
