<?xml version="1.0" encoding="UTF-8" standalone="no"?>
<svg
   xmlns:dc="http://purl.org/dc/elements/1.1/"
   xmlns:cc="http://creativecommons.org/ns#"
   xmlns:rdf="http://www.w3.org/1999/02/22-rdf-syntax-ns#"
   xmlns:svg="http://www.w3.org/2000/svg"
   xmlns="http://www.w3.org/2000/svg"
   viewBox="0 0 18.666668 18.666668"
   height="18.666668"
   width="18.666668"
   xml:space="preserve"
   id="svg2"
   version="1.1"><metadata
     id="metadata8"><rdf:RDF><cc:Work
         rdf:about=""><dc:format>image/svg+xml</dc:format><dc:type
           rdf:resource="http://purl.org/dc/dcmitype/StillImage" /></cc:Work></rdf:RDF></metadata><defs
     id="defs6"><clipPath
       id="clipPath18"
       clipPathUnits="userSpaceOnUse"><path
         id="path16"
         d="M 0,14 H 14 V 0 H 0 Z" /></clipPath></defs><g
     transform="matrix(1.3333333,0,0,-1.3333333,0,18.666667)"
     id="g10"><g
       id="g12"><g
         clip-path="url(#clipPath18)"
         id="g14"><g
           transform="translate(14,11.3463)"
           id="g20"><path
             id="path22"
             style="fill:#000000;fill-opacity:1;fill-rule:nonzero;stroke:none"
             d="m 0,0 c -0.516,-0.228 -1.068,-0.383 -1.65,-0.454 0.594,0.356 1.051,0.92 1.264,1.59 C -0.94,0.807 -1.555,0.567 -2.21,0.439 -2.735,1 -3.483,1.35 -4.308,1.35 c -1.587,0 -2.871,-1.288 -2.871,-2.875 0,-0.225 0.023,-0.445 0.074,-0.656 -2.389,0.119 -4.507,1.264 -5.922,3.006 -0.246,-0.425 -0.389,-0.92 -0.389,-1.445 0,-0.997 0.508,-1.878 1.279,-2.394 -0.472,0.012 -0.917,0.142 -1.302,0.359 v -0.036 c 0,-1.394 0.991,-2.554 2.305,-2.818 -0.24,-0.065 -0.496,-0.101 -0.757,-0.101 -0.184,0 -0.365,0.018 -0.54,0.053 0.365,-1.142 1.427,-1.973 2.685,-1.996 -0.982,-0.772 -2.222,-1.232 -3.569,-1.232 -0.231,0 -0.46,0.015 -0.685,0.042 1.27,-0.825 2.78,-1.299 4.4,-1.299 5.286,0 8.176,4.381 8.176,8.182 0,0.124 -0.003,0.249 -0.009,0.371 C -0.872,-1.083 -0.386,-0.576 0,0" /></g></g></g></g></svg>