<?xml version="1.0" encoding="UTF-8" standalone="no"?>
<svg
   xmlns:dc="http://purl.org/dc/elements/1.1/"
   xmlns:cc="http://creativecommons.org/ns#"
   xmlns:rdf="http://www.w3.org/1999/02/22-rdf-syntax-ns#"
   xmlns:svg="http://www.w3.org/2000/svg"
   xmlns="http://www.w3.org/2000/svg"
   viewBox="0 0 18.666668 18.666668"
   height="18.666668"
   width="18.666668"
   xml:space="preserve"
   id="svg2"
   version="1.1"><metadata
     id="metadata8"><rdf:RDF><cc:Work
         rdf:about=""><dc:format>image/svg+xml</dc:format><dc:type
           rdf:resource="http://purl.org/dc/dcmitype/StillImage" /></cc:Work></rdf:RDF></metadata><defs
     id="defs6"><clipPath
       id="clipPath18"
       clipPathUnits="userSpaceOnUse"><path
         id="path16"
         d="M 0,14 H 14 V 0 H 0 Z" /></clipPath></defs><g
     transform="matrix(1.3333333,0,0,-1.3333333,0,18.666667)"
     id="g10"><g
       id="g12"><g
         clip-path="url(#clipPath18)"
         id="g14"><g
           transform="translate(5.5547,5.1841)"
           id="g20"><path
             id="path22"
             style="fill:#000000;fill-opacity:1;fill-rule:nonzero;stroke:none"
             d="M 0,0 -0.001,3.934 3.782,1.96 Z m 8.306,4.615 c 0,0 -0.137,0.965 -0.557,1.39 C 7.217,6.562 6.62,6.565 6.346,6.598 4.387,6.739 1.448,6.739 1.448,6.739 H 1.442 c 0,0 -2.938,0 -4.898,-0.141 -0.273,-0.033 -0.87,-0.036 -1.402,-0.593 -0.42,-0.425 -0.557,-1.39 -0.557,-1.39 0,0 -0.14,-1.133 -0.14,-2.266 V 1.287 c 0,-1.133 0.14,-2.266 0.14,-2.266 0,0 0.137,-0.965 0.557,-1.389 0.532,-0.558 1.232,-0.54 1.543,-0.599 1.12,-0.107 4.76,-0.141 4.76,-0.141 0,0 2.942,0.005 4.901,0.147 0.274,0.032 0.871,0.035 1.403,0.593 0.42,0.424 0.557,1.389 0.557,1.389 0,0 0.139,1.133 0.139,2.266 v 1.062 c 0,1.133 -0.139,2.266 -0.139,2.266" /></g></g></g></g></svg>