<?xml version="1.0" encoding="utf-8"?>
<!-- Generator: Adobe Illustrator 19.0.0, SVG Export Plug-In . SVG Version: 6.00 Build 0)  -->
<svg version="1.1" id="Capa_1" xmlns="http://www.w3.org/2000/svg" xmlns:xlink="http://www.w3.org/1999/xlink" x="0px" y="0px"
	 viewBox="75.1 -15.1 50 50" enable-background="new 75.1 -15.1 50 50" xml:space="preserve">
<g>
	<circle cx="100.1" cy="9.9" r="25"/>
	<g>
		<g>
			<g>
				<path fill="#FFFFFF" d="M106.4-7.4c-1.6,0.1-3.6,1.2-4.7,2.5c-1,1.2-1.9,3.1-1.6,4.9c1.8,0,3.7-1,4.8-2.5
					C105.9-3.7,106.7-5.5,106.4-7.4z"/>
			</g>
		</g>
		<g>
			<g>
				<path fill="#FFFFFF" d="M112.9,3c-1.6-2-3.8-3.2-5.9-3.2c-2.8,0-4,1.3-5.9,1.3c-2,0-3.5-1.3-5.9-1.3c-2.4,0-4.9,1.4-6.5,3.9
					c-2.2,3.5-1.9,10,1.8,15.6c1.3,2,3,4.2,5.3,4.3c2,0,2.6-1.3,5.3-1.3c2.8,0,3.3,1.3,5.3,1.3c2.3,0,4.1-2.5,5.4-4.5
					c0.9-1.4,1.3-2.1,2-3.7C108.5,13.4,107.7,5.9,112.9,3z"/>
			</g>
		</g>
	</g>
</g>
</svg>
