<?xml version="1.0" encoding="utf-8"?>
<!-- Generator: Adobe Illustrator 19.0.0, SVG Export Plug-In . SVG Version: 6.00 Build 0)  -->
<svg version="1.1" id="Layer_1" xmlns="http://www.w3.org/2000/svg" xmlns:xlink="http://www.w3.org/1999/xlink" x="0px" y="0px"
	 viewBox="475 -15 50 50" enable-background="new 475 -15 50 50" xml:space="preserve">
<path fill="#FBBB00" d="M486.1,15.2l-1.7,6.5l-6.4,0.1c-1.9-3.5-3-7.6-3-11.8c0-4.1,1-8.1,2.8-11.5h0l5.7,1l2.5,5.6
	c-0.5,1.5-0.8,3.1-0.8,4.8C485.1,11.8,485.5,13.6,486.1,15.2z"/>
<path fill="#518EF8" d="M524.6,5.3c0.3,1.5,0.4,3.1,0.4,4.7c0,1.8-0.2,3.5-0.5,5.2c-1.2,5.7-4.4,10.7-8.8,14.3l0,0l-7.1-0.4l-1-6.3
	c2.9-1.7,5.2-4.4,6.4-7.6h-13.4V5.3h13.6H524.6L524.6,5.3z"/>
<path fill="#28B446" d="M515.6,29.5L515.6,29.5c-4.3,3.4-9.7,5.5-15.6,5.5c-9.5,0-17.8-5.3-22-13.2l8.1-6.6
	c2.1,5.6,7.5,9.6,13.9,9.6c2.7,0,5.3-0.7,7.5-2L515.6,29.5z"/>
<path fill="#F14336" d="M516-9.2l-8.1,6.6c-2.3-1.4-5-2.2-7.9-2.2c-6.5,0-12.1,4.2-14.1,10l-8.1-6.7h0C482-9.5,490.3-15,500-15
	C506.1-15,511.6-12.8,516-9.2z"/>
</svg>
