<?xml version="1.0" encoding="UTF-8" standalone="no"?>
<svg
   xmlns:dc="http://purl.org/dc/elements/1.1/"
   xmlns:cc="http://creativecommons.org/ns#"
   xmlns:rdf="http://www.w3.org/1999/02/22-rdf-syntax-ns#"
   xmlns:svg="http://www.w3.org/2000/svg"
   xmlns="http://www.w3.org/2000/svg"
   viewBox="0 0 258.91467 53.333332"
   height="53.333332"
   width="258.91467"
   xml:space="preserve"
   id="svg2"
   version="1.1"><metadata
     id="metadata8"><rdf:RDF><cc:Work
         rdf:about=""><dc:format>image/svg+xml</dc:format><dc:type
           rdf:resource="http://purl.org/dc/dcmitype/StillImage" /></cc:Work></rdf:RDF></metadata><defs
     id="defs6"><clipPath
       id="clipPath18"
       clipPathUnits="userSpaceOnUse"><path
         id="path16"
         d="M 0,40 H 194.186 V 0 H 0 Z" /></clipPath></defs><g
     transform="matrix(1.3333333,0,0,-1.3333333,0,53.333333)"
     id="g10"><g
       id="g12"><g
         clip-path="url(#clipPath18)"
         id="g14"><g
           transform="translate(6.6605,26.0253)"
           id="g20"><path
             id="path22"
             style="fill:#ffffff;fill-opacity:1;fill-rule:nonzero;stroke:none"
             d="M 0,0 C 1.425,2.426 3.773,3.773 6.737,3.812 V -2.195 C 2.888,-1.848 0.347,-3.658 0,-6.584 V -17.248 H -6.661 V 3.504 l 6.661,0 z" /></g><g
           transform="translate(29.6073,20.9433)"
           id="g24"><path
             id="path26"
             style="fill:#ffffff;fill-opacity:1;fill-rule:nonzero;stroke:none"
             d="M 0,0 C 0,2.541 -1.617,4.197 -4.004,4.197 -6.314,4.197 -7.892,2.503 -8.316,0 Z M 6.392,-3.581 H -8.2 c 0.654,-2.464 2.425,-3.85 4.889,-3.85 1.81,0 3.581,0.732 4.967,2.118 L 5.16,-8.74 c -2.118,-2.31 -5.237,-3.657 -9.048,-3.657 -6.776,0 -11.011,4.235 -11.011,10.549 0,6.43 4.389,10.665 10.818,10.665 7.315,0 10.935,-4.813 10.473,-12.398" /></g><g
           transform="translate(57.9068,25.1013)"
           id="g28"><path
             id="path30"
             style="fill:#ffffff;fill-opacity:1;fill-rule:nonzero;stroke:none"
             d="m 0,0 -4.774,-2.888 c -0.963,1.348 -2.387,2.156 -4.197,2.156 -2.579,0 -4.35,-2.117 -4.35,-5.236 0,-3.195 1.771,-5.274 4.35,-5.274 1.887,0 3.35,0.77 4.236,2.348 l 4.85,-2.849 c -1.694,-3.041 -5.043,-4.812 -9.432,-4.812 -6.391,0 -10.703,4.235 -10.703,10.549 0,6.391 4.351,10.665 10.78,10.665 C -5.121,4.659 -1.809,2.965 0,0" /></g><path
           id="path32"
           style="fill:#ffffff;fill-opacity:1;fill-rule:nonzero;stroke:none"
           d="M 61.258,29.529 H 67.88 V 8.777 h -6.622 z m 6.853,5.967 c 0,-2.079 -1.463,-3.542 -3.504,-3.542 -2.04,0 -3.503,1.463 -3.503,3.542 0,2.041 1.463,3.504 3.503,3.504 2.041,0 3.504,-1.463 3.504,-3.504" /><g
           transform="translate(89.3257,19.2492)"
           id="g34"><path
             id="path36"
             style="fill:#ffffff;fill-opacity:1;fill-rule:nonzero;stroke:none"
             d="M 0,0 C 0,3.157 -1.887,5.39 -4.659,5.39 -7.354,5.39 -9.24,3.157 -9.24,0 c 0,-3.234 1.886,-5.429 4.581,-5.429 C -1.887,-5.429 0,-3.196 0,0 m 6.699,-0.193 c 0,-6.314 -3.773,-10.51 -9.587,-10.51 -2.695,0 -4.89,1.078 -6.352,3.003 v -10.241 h -6.661 V 10.28 H -9.24 V 7.546 c 1.462,1.887 3.58,2.965 6.198,2.965 5.852,0 9.741,-4.274 9.741,-10.704" /></g><g
           transform="translate(109.8868,6.6211)"
           id="g38"><path
             id="path40"
             style="fill:#ffffff;fill-opacity:1;fill-rule:nonzero;stroke:none"
             d="m 0,0 c -1.54,-3.773 -4.158,-5.621 -8.008,-5.621 -2.31,0 -4.197,0.693 -6.045,2.117 l 2.772,4.544 c 0.963,-0.77 1.772,-1.117 2.734,-1.117 1.194,0 2.04,0.539 2.58,1.656 l 0.5,1.039 -8.624,20.29 h 6.853 L -2.156,9.125 2.349,22.908 h 6.622 z" /></g><g
           transform="translate(125.9013,13.1892)"
           id="g42"><path
             id="path44"
             style="fill:#ffffff;fill-opacity:1;fill-rule:nonzero;stroke:none"
             d="M 0,0 V -3.092 H -2.401 V 0 h -3.092 v 2.401 h 3.092 V 5.493 H 0 V 2.401 H 3.092 L 3.092,0 Z m -1.2,7.044 c -3.227,0 -5.844,-2.617 -5.844,-5.844 0,-3.227 2.617,-5.843 5.844,-5.843 3.227,0 5.843,2.616 5.843,5.843 0,3.227 -2.616,5.844 -5.843,5.844" /></g><g
           transform="translate(170.0312,21.7685)"
           id="g46"><path
             id="path48"
             style="fill:#ffffff;fill-opacity:1;fill-rule:nonzero;stroke:none"
             d="m 0,0 v -12.993 h -6.573 v 11.159 c 0,2.445 -1.376,3.936 -3.554,3.936 C -12.611,2.025 -14.14,0 -14.14,-2.79 v -10.203 h -6.611 v 11.159 c 0,2.445 -1.338,3.936 -3.516,3.936 C -26.789,2.025 -28.356,0 -28.356,-2.79 v -10.203 h -6.573 V 7.605 h 6.573 V 4.204 c 1.414,2.445 3.784,3.668 6.803,3.707 3.363,0 5.846,-1.758 6.878,-4.663 1.338,3.057 3.86,4.624 7.261,4.663 C -2.904,7.911 0,4.815 0,0" /></g><g
           transform="translate(187.8038,20.8513)"
           id="g50"><path
             id="path52"
             style="fill:#ffffff;fill-opacity:1;fill-rule:nonzero;stroke:none"
             d="M 0,0 C 0,2.522 -1.605,4.165 -3.974,4.165 -6.267,4.165 -7.834,2.484 -8.254,0 Z M 6.343,-3.554 H -8.14 c 0.65,-2.446 2.407,-3.822 4.853,-3.822 1.796,0 3.554,0.727 4.93,2.102 L 5.12,-8.675 c -2.101,-2.293 -5.197,-3.63 -8.98,-3.63 -6.726,0 -10.929,4.203 -10.929,10.471 0,6.382 4.356,10.585 10.738,10.585 7.261,0 10.853,-4.777 10.394,-12.305" /></g></g></g></g></svg>