<?xml version="1.0" encoding="UTF-8" standalone="no"?>
<svg
   xmlns:dc="http://purl.org/dc/elements/1.1/"
   xmlns:cc="http://creativecommons.org/ns#"
   xmlns:rdf="http://www.w3.org/1999/02/22-rdf-syntax-ns#"
   xmlns:svg="http://www.w3.org/2000/svg"
   xmlns="http://www.w3.org/2000/svg"
   viewBox="0 0 272.54132 53.333332"
   height="53.333332"
   width="272.54132"
   xml:space="preserve"
   id="svg2"
   version="1.1"><metadata
     id="metadata8"><rdf:RDF><cc:Work
         rdf:about=""><dc:format>image/svg+xml</dc:format><dc:type
           rdf:resource="http://purl.org/dc/dcmitype/StillImage" /></cc:Work></rdf:RDF></metadata><defs
     id="defs6"><clipPath
       id="clipPath18"
       clipPathUnits="userSpaceOnUse"><path
         id="path16"
         d="M 0,40 H 204.406 V 0 H 0 Z" /></clipPath></defs><g
     transform="matrix(1.3333333,0,0,-1.3333333,0,53.333333)"
     id="g10"><g
       id="g12"><g
         clip-path="url(#clipPath18)"
         id="g14"><g
           transform="translate(7.0109,26.3425)"
           id="g20"><path
             id="path22"
             style="fill:#000000;fill-opacity:1;fill-rule:nonzero;stroke:none"
             d="M 0,0 C 1.499,2.553 3.972,3.972 7.092,4.012 V -2.31 C 3.04,-1.945 0.365,-3.85 0,-6.93 V -18.156 H -7.011 V 3.688 l 7.011,0 z" /></g><g
           transform="translate(31.1654,20.9929)"
           id="g24"><path
             id="path26"
             style="fill:#000000;fill-opacity:1;fill-rule:nonzero;stroke:none"
             d="M 0,0 C 0,2.675 -1.702,4.417 -4.215,4.417 -6.646,4.417 -8.308,2.634 -8.754,0 Z m 6.728,-3.769 h -15.36 c 0.689,-2.594 2.553,-4.053 5.147,-4.053 1.905,0 3.769,0.77 5.228,2.229 L 5.431,-9.2 c -2.229,-2.431 -5.512,-3.85 -9.524,-3.85 -7.133,0 -11.591,4.458 -11.591,11.105 0,6.768 4.62,11.226 11.389,11.226 7.699,0 11.509,-5.066 11.023,-13.05" /></g><g
           transform="translate(60.9544,25.3698)"
           id="g28"><path
             id="path30"
             style="fill:#000000;fill-opacity:1;fill-rule:nonzero;stroke:none"
             d="m 0,0 -5.025,-3.04 c -1.014,1.419 -2.513,2.27 -4.418,2.27 -2.715,0 -4.579,-2.229 -4.579,-5.512 0,-3.363 1.864,-5.552 4.579,-5.552 1.986,0 3.526,0.811 4.458,2.472 l 5.106,-2.999 c -1.783,-3.201 -5.308,-5.066 -9.928,-5.066 -6.728,0 -11.267,4.458 -11.267,11.105 0,6.727 4.58,11.226 11.348,11.226 C -5.39,4.904 -1.905,3.121 0,0" /></g><path
           id="path32"
           style="fill:#000000;fill-opacity:1;fill-rule:nonzero;stroke:none"
           d="m 64.482,30.03 h 6.971 V 8.186 h -6.971 z m 7.213,6.282 c 0,-2.188 -1.539,-3.728 -3.687,-3.728 -2.149,0 -3.688,1.54 -3.688,3.728 0,2.148 1.539,3.688 3.688,3.688 2.148,0 3.687,-1.54 3.687,-3.688" /><g
           transform="translate(94.0269,19.2097)"
           id="g34"><path
             id="path36"
             style="fill:#000000;fill-opacity:1;fill-rule:nonzero;stroke:none"
             d="m 0,0 c 0,3.323 -1.986,5.674 -4.904,5.674 -2.837,0 -4.822,-2.351 -4.822,-5.674 0,-3.404 1.985,-5.714 4.822,-5.714 C -1.986,-5.714 0,-3.364 0,0 m 7.051,-0.203 c 0,-6.646 -3.971,-11.063 -10.091,-11.063 -2.837,0 -5.147,1.134 -6.686,3.161 v -10.781 h -7.012 v 29.707 h 7.012 V 7.943 c 1.539,1.986 3.768,3.121 6.524,3.121 6.16,0 10.253,-4.499 10.253,-11.267" /></g><g
           transform="translate(115.6702,5.9169)"
           id="g38"><path
             id="path40"
             style="fill:#000000;fill-opacity:1;fill-rule:nonzero;stroke:none"
             d="m 0,0 c -1.621,-3.972 -4.377,-5.917 -8.43,-5.917 -2.431,0 -4.417,0.73 -6.363,2.229 l 2.918,4.782 c 1.014,-0.81 1.865,-1.175 2.878,-1.175 1.257,0 2.148,0.567 2.716,1.743 l 0.526,1.094 -9.078,21.357 h 7.214 L -2.27,9.605 2.472,24.113 h 6.971 z" /></g><g
           transform="translate(132.5275,12.8307)"
           id="g42"><path
             id="path44"
             style="fill:#ec2c26;fill-opacity:1;fill-rule:nonzero;stroke:none"
             d="M 0,0 V -3.255 H -2.527 V 0 h -3.255 v 2.527 h 3.255 V 5.782 H 0 V 2.527 H 3.255 V 0 Z m -1.263,7.414 c -3.397,0 -6.151,-2.754 -6.151,-6.151 0,-3.397 2.754,-6.15 6.151,-6.15 3.397,0 6.15,2.753 6.15,6.15 0,3.397 -2.753,6.151 -6.15,6.151" /></g><g
           transform="translate(178.9801,21.8616)"
           id="g46"><path
             id="path48"
             style="fill:#000000;fill-opacity:1;fill-rule:nonzero;stroke:none"
             d="m 0,0 v -13.677 h -6.919 v 11.746 c 0,2.575 -1.448,4.143 -3.741,4.143 -2.615,-0.08 -4.224,-2.212 -4.224,-5.149 v -10.74 h -6.959 v 11.746 c 0,2.575 -1.408,4.143 -3.701,4.143 -2.655,-0.08 -4.304,-2.212 -4.304,-5.149 v -10.74 h -6.919 V 8.005 h 6.919 v -3.58 c 1.488,2.574 3.982,3.862 7.16,3.902 3.54,0 6.155,-1.851 7.241,-4.908 1.408,3.218 4.063,4.868 7.643,4.908 C -3.057,8.327 0,5.069 0,0" /></g><g
           transform="translate(197.6881,20.8961)"
           id="g50"><path
             id="path52"
             style="fill:#000000;fill-opacity:1;fill-rule:nonzero;stroke:none"
             d="M 0,0 C 0,2.655 -1.69,4.385 -4.184,4.385 -6.597,4.385 -8.247,2.615 -8.689,0 Z M 6.677,-3.741 H -8.568 c 0.684,-2.575 2.534,-4.023 5.108,-4.023 1.891,0 3.741,0.765 5.189,2.213 l 3.661,-3.58 c -2.212,-2.414 -5.471,-3.822 -9.453,-3.822 -7.08,0 -11.505,4.425 -11.505,11.022 0,6.718 4.586,11.143 11.304,11.143 7.643,0 11.424,-5.028 10.941,-12.953" /></g></g></g></g></svg>