<?xml version="1.0" encoding="UTF-8" standalone="no"?>
<svg
   xmlns:dc="http://purl.org/dc/elements/1.1/"
   xmlns:cc="http://creativecommons.org/ns#"
   xmlns:rdf="http://www.w3.org/1999/02/22-rdf-syntax-ns#"
   xmlns:svg="http://www.w3.org/2000/svg"
   xmlns="http://www.w3.org/2000/svg"
   viewBox="0 0 30.666668 30.666668"
   height="30.666668"
   width="30.666668"
   xml:space="preserve"
   id="svg2"
   version="1.1"><metadata
     id="metadata8"><rdf:RDF><cc:Work
         rdf:about=""><dc:format>image/svg+xml</dc:format><dc:type
           rdf:resource="http://purl.org/dc/dcmitype/StillImage" /></cc:Work></rdf:RDF></metadata><defs
     id="defs6"><clipPath
       id="clipPath22"
       clipPathUnits="userSpaceOnUse"><path
         id="path20"
         d="M 0,23 H 23 V 0 H 0 Z" /></clipPath></defs><g
     transform="matrix(1.3333333,0,0,-1.3333333,0,30.666667)"
     id="g10"><g
       transform="translate(15.6081,14.4033)"
       id="g12"><path
         id="path14"
         style="fill:#ec2c26;fill-opacity:1;fill-rule:nonzero;stroke:none"
         d="M 0,0 H -3.947 V 3.947 H -7.011 V 0 h -3.947 v -3.064 h 3.947 v -3.947 h 3.064 v 3.947 H 0 Z" /></g><g
       id="g16"><g
         clip-path="url(#clipPath22)"
         id="g18"><g
           transform="translate(4.8546,7.5969)"
           id="g24"><path
             id="path26"
             style="fill:#000000;fill-opacity:1;fill-rule:nonzero;stroke:none"
             d="m 0,0 c -2.913,2.913 -2.913,7.636 0,10.548 1.456,1.457 3.365,2.185 5.274,2.185 1.909,0 3.818,-0.728 5.274,-2.185 C 13.461,7.636 13.461,2.913 10.548,0 9.092,-1.456 7.183,-2.185 5.274,-2.185 3.365,-2.185 1.456,-1.456 0,0 m 18.145,-5.709 -4.826,4.827 c 1.351,1.759 2.084,3.901 2.084,6.156 0,2.706 -1.054,5.249 -2.967,7.162 -1.913,1.914 -4.456,2.967 -7.162,2.967 -2.705,0 -5.249,-1.053 -7.162,-2.967 -1.913,-1.913 -2.967,-4.456 -2.967,-7.162 0,-2.705 1.054,-5.249 2.967,-7.162 1.913,-1.913 4.457,-2.967 7.162,-2.967 2.255,0 4.398,0.733 6.157,2.085 l 4.826,-4.827 z" /></g></g></g></g></svg>